{"title":"Just.Looking.DVDRip.Xvid","uid":5943106,"size":1456437295,"categoryP":"video","categoryS":"movies","magnet":"?xt=urn:btih:ce55bede5174068dfcc34cb7f5ced9b0d53e7d87&amp;dn=Just.Looking.DVDRip.Xvid&amp;tr=udp%3A%2F%2Ftracker.openbittorrent.com%3A80&amp;tr=udp%3A%2F%2Fopen.demonii.com%3A1337&amp;tr=udp%3A%2F%2Ftracker.coppersurfer.tk%3A6969&amp;tr=udp%3A%2F%2Fexodus.desync.com%3A6969","seeders":1,"leechers":0,"uploader":"MessageBoxA","files":-1,"time":1289254331,"description":"Just Looking is an American feature film from the year 1999. It starred Ryan Merriman, was directed by Jason Alexander and received a limited theatrical release. A teenage boy from the Bronx is sent to Queens to live with his Aunt and new Uncle one summer in the 1950's. His summer goal is to witness an act of love. Lenny is a typical 14-year-old from the Bronx. Like every teenage boy, he is totally fascinated with the concept of sex. But the year is 1955, and Lenny is too young and too scared to actually &quot;do it.&quot; So he dedicates his summer vacation to the next best thing. Seeing two other people do it. Easier said than done. Caught in the act of spying, his mother and stepfather ship him off to spend the summer with his aunt and uncle in &quot;the country&quot; Queens. His plan looks like a bust, and his summer seems destined for boredom, until he meets a whole new group of friends. Young teens who have a &quot;sex club.&quot; They don't do it; they just talk about it, but these kids have a lot more interesting information than was available in the Bronx. And then he meets Hedy; a nurse, twice his age, and gorgeous - in a former life she modeled for bra ads. Lenny is both smitten and inspired, and his goal for the summer kicks into high gear. Lenny's plan to &quot;witness an act of love&quot; becomes an obsession, which turns a summer vacation into an adventure that will change his life forever.\n\nGeneral\nComplete name                    : Just.Looking.DVDRip.Xvid.avi\nFormat                           : AVI\nFormat/Info                      : Audio Video Interleave\nFile size                        : 1.36 GiB\nDuration                         : 1h 41mn\nOverall bit rate                 : 1 918 Kbps\n\nVideo\nDuration                         : 1h 41mn\nBit rate                         : 1 781 Kbps\nWidth                            : 688 pixels\nHeight                           : 368 pixels\nDisplay aspect ratio             : 1.870\nFrame rate                       : 23.976 fps\nResolution                       : 8 bits\nColorimetry                      : 4:2:0\nScan type                        : Progressive\nBits/(Pixel*Frame)               : 0.293\nStream size                      : 1.26 GiB (93%)\n\nAudio\nCodec ID/Hint                    : MP3\nDuration                         : 1h 41mn\nBit rate mode                    : Constant\nBit rate                         : 128 Kbps\nChannel(s)                       : 2 channels\nSampling rate                    : 48.0 KHz\nStream size                      : 92.7 MiB (7%)\n\nIMDB &lt;a href=&quot;\nhttp://www.imdb.com/title/tt0162236/&quot; rel=&quot;nofollow&quot; target=&quot;_NEW&quot;&gt;\nhttp://www.imdb.com/title/tt0162236/&lt;/a&gt;\n\nScreens &lt;a href=&quot;\nhttp://postimg.com/image/24000/23749.jpg&quot; rel=&quot;nofollow&quot; target=&quot;_NEW&quot;&gt;\nhttp://postimg.com/image/24000/23749.jpg&lt;/a&gt; &lt;a href=&quot;\nhttp://postimg.com/image/24000/23750.jpg&quot; rel=&quot;nofollow&quot; target=&quot;_NEW&quot;&gt;\nhttp://postimg.com/image/24000/23750.jpg&lt;/a&gt; &lt;a href=&quot;\nhttp://postimg.com/image/24000/23751.jpg&quot; rel=&quot;nofollow&quot; target=&quot;_NEW&quot;&gt;\nhttp://postimg.com/image/24000/23751.jpg&lt;/a&gt;","torrent":{"xt":"urn:btih:ce55bede5174068dfcc34cb7f5ced9b0d53e7d87","amp;dn":"Just.Looking.DVDRip.Xvid","amp;tr":["udp%3A%2F%2Ftracker.openbittorrent.com%3A80","udp%3A%2F%2Fopen.demonii.com%3A1337","udp%3A%2F%2Ftracker.coppersurfer.tk%3A6969","udp%3A%2F%2Fexodus.desync.com%3A6969"],"infoHash":"ce55bede5174068dfcc34cb7f5ced9b0d53e7d87","infoHashBuffer":{"type":"Buffer","data":[206,85,190,222,81,116,6,141,252,195,76,183,245,206,217,176,213,62,125,135]},"announce":[],"urlList":[]}}